<svg width="193" height="28" viewBox="0 0 193 28" fill="none" xmlns="http://www.w3.org/2000/svg">
<path d="M13.7857 3.90594L16.0471 9.34297L16.3989 10.1889L17.3122 10.2621L23.1819 10.7327L18.7098 14.5635L18.014 15.1596L18.2266 16.0508L19.5929 21.7786L14.5676 18.7092L13.7857 18.2316L13.0038 18.7092L7.97853 21.7786L9.34483 16.0508L9.55741 15.1596L8.8616 14.5635L4.38949 10.7327L10.2592 10.2621L11.1725 10.1889L11.5243 9.34297L13.7857 3.90594Z" fill="#B04991" stroke="#B04991" stroke-width="3"/>
<path d="M55.1429 3.90594L57.4042 9.34297L57.7561 10.1889L58.6694 10.2621L64.5391 10.7327L60.067 14.5635L59.3712 15.1596L59.5837 16.0508L60.95 21.7786L55.9247 18.7092L55.1429 18.2316L54.361 18.7092L49.3357 21.7786L50.702 16.0508L50.9146 15.1596L50.2187 14.5635L45.7466 10.7327L51.6164 10.2621L52.5296 10.1889L52.8815 9.34297L55.1429 3.90594Z" fill="#B04991" stroke="#B04991" stroke-width="3"/>
<path d="M96.5 3.90594L98.7614 9.34297L99.1132 10.1889L100.027 10.2621L105.896 10.7327L101.424 14.5635L100.728 15.1596L100.941 16.0508L102.307 21.7786L97.2819 18.7092L96.5 18.2316L95.7181 18.7092L90.6928 21.7786L92.0591 16.0508L92.2717 15.1596L91.5759 14.5635L87.1038 10.7327L92.9735 10.2621L93.8868 10.1889L94.2386 9.34297L96.5 3.90594Z" fill="#B04991" stroke="#B04991" stroke-width="3"/>
<path d="M137.857 3.90594L140.119 9.34297L140.47 10.1889L141.384 10.2621L147.253 10.7327L142.781 14.5635L142.085 15.1596L142.298 16.0508L143.664 21.7786L138.639 18.7092L137.857 18.2316L137.075 18.7092L132.05 21.7786L133.416 16.0508L133.629 15.1596L132.933 14.5635L128.461 10.7327L134.331 10.2621L135.244 10.1889L135.596 9.34297L137.857 3.90594Z" fill="#B04991" stroke="#B04991" stroke-width="3"/>
<path d="M179.214 0L182.861 8.76692L192.325 9.52569L185.114 15.7027L187.317 24.9386L179.214 19.9893L171.111 24.9386L173.314 15.7027L166.103 9.52569L175.568 8.76692L179.214 0Z" fill="#B04991" fill-opacity="0.74"/>
</svg>
